<svg id="Layer_2" data-name="Layer 2" xmlns="http://www.w3.org/2000/svg" xmlns:xlink="http://www.w3.org/1999/xlink" viewBox="0 0 400 300"><defs><linearGradient id="linear-gradient" x1="107.44" y1="233.08" x2="111.49" y2="230.15" gradientUnits="userSpaceOnUse"><stop offset="0" stop-color="#ffbe30"/><stop offset="1" stop-color="#ff7a30"/></linearGradient><linearGradient id="linear-gradient-2" x1="315.55" y1="209.34" x2="350.5" y2="187.92" xlink:href="#linear-gradient"/><linearGradient id="linear-gradient-3" x1="161.27" y1="236.77" x2="188.29" y2="199.12" xlink:href="#linear-gradient"/><linearGradient id="linear-gradient-4" x1="164.33" y1="152.32" x2="186.21" y2="126.17" gradientUnits="userSpaceOnUse"><stop offset="0" stop-opacity="0"/><stop offset="0.99" stop-color="#1a1a1a"/></linearGradient><linearGradient id="linear-gradient-5" x1="141.12" y1="244.75" x2="153.61" y2="236.32" xlink:href="#linear-gradient"/></defs><title>PP_</title><path d="M196.24,288.6,23.74,186.65c-5.49-3.08-10.2-8.15-4.85-11.46L192,75.41c2.6-1.61,6.54-2.66,9.18-1.13L382.28,179.37c5.49,3.19,6.48,12.1,1,15.29L219,288.44A22.94,22.94,0,0,1,196.24,288.6Z" fill="#ffbe30"/><path d="M106.61,235.05l7.49-4.23a20.74,20.74,0,0,0-1.85-1.82c-3,1.4-5.87,2.89-8.77,4.39C104.16,234.15,105.93,234.3,106.61,235.05Z" fill="url(#linear-gradient)"/><path d="M334.25,191.42c-13.73,8.21-27.32,16.68-41.29,24.46l10.45,5.82,40.26-22.27Z" fill="url(#linear-gradient-2)"/><polygon points="156.97 148.84 70.95 193.26 208.88 274.46 287.06 230.85 259.56 208.06 156.97 148.84" fill="url(#linear-gradient-3)"/><polyline points="233.31 161.88 233.31 199.74 236.11 199.74 236.72 160.9" fill="#b38e7e"/><polyline points="249.25 147.31 254.86 188.48 252.05 188.48 246.19 148.84" fill="#b38e7e"/><path d="M192.65,176.1s-2.61,8.56-3.19,9.43-9.14,6.53-9,8.27,3.38,2.47,5.39,2.32,13.62-5,14.35-6.41.73-13.62.73-13.62Z" fill="#5c2d1d"/><path d="M206.42,186.12s-2.61,8.56-3.19,9.43-9.14,6.53-9,8.27,3.38,2.47,5.39,2.32,13.62-5,14.35-6.41.73-13.62.73-13.62Z" fill="#5c2d1d"/><path d="M250.77,108.18c-.74,2.08-4.94,33.66-4.94,33.66l-4.22-1.41,5.5-32.41" fill="#b38e7e"/><polyline points="249.25 147.31 249.32 142.23 244.82 143.77 246.19 148.84" fill="#a9cbf8"/><path d="M239.07,139.44s11.3,4.34,10.17,8.61-10.16,14.73-15.93,13.83-12.84-5.93-12.84-5.93" fill="#ded6cc"/><path d="M239.07,134.24s11.3,4.34,10.17,8.61-10.16,14.73-15.93,13.83-12.84-5.93-12.84-5.93" fill="#e8e5d6"/><path d="M239.78,92.91s14.68,4.41,15.79,10.7S257,121.49,241.5,117s-8.19-16.15-8.19-16.15" fill="#e8e5d6"/><path d="M229,108s3.85,16.2,1,24.88-19.11,15.62-19.11,15.62L204,183.39c-9.1,2.86-16.92-2-16.92-2s1.89-30.78,4.78-38.59,25.24-23.16,25.24-23.16" fill="#895851"/><path d="M229.63,128.62S207.27,144,204.39,151.77s-4.78,38.59-4.78,38.59,7.82,4.86,16.92,2l6.85-34.88s11.63-3.32,14.48-12,1.68-21.85,1.68-21.85" fill="#895851"/><path d="M238.51,128.94c3.81-9.28,5.46-33.39,3.1-36.29-4.89-6-15.21-5.28-15.21-5.28s-6-3.59-11,.66c-3.74,3.16-1.08,22.57,0,34.91C221.92,128.95,229.14,130.63,238.51,128.94Z" fill="#444f4b"/><path d="M222.49,131.71c-4,4-8.33,7.89-12.08,12.17-3.25,3.72-4.53,8.44-5.79,13.12-2.94,10.89-4.25,22.13-5.56,33.31-.08.68,1,.67,1.06,0,1.26-10.76,2.52-21.56,5.26-32.06,1.34-5.15,2.69-10.27,6.37-14.27s7.66-7.69,11.48-11.51A.53.53,0,0,0,222.49,131.71Z" fill="#5c2d1d"/><path d="M241.84,113.71s-1.55,14.35-4.56,17.64-16.53,9.11-16.53,9.11-3.32-5.83-6.83-7.2c0,0,13.49-7.58,13.83-9" fill="#444f4b"/><path d="M231.91,103.68c-.22,3.08-.54,6.16-1,9.22a44.31,44.31,0,0,1-1.49,8.12c-1,2.81-4.75,4.48-7.14,6s-5.06,3.23-7.63,4.79c-.58.36,0,1.27.54.92q4.49-2.74,8.88-5.62c2-1.31,5-2.65,6.06-4.94,1.15-2.49,1.32-5.85,1.73-8.54.5-3.31.86-6.65,1.1-10C233,103,232,103,231.91,103.68Z" fill="#27302d"/><path d="M237.39,258.79l49.67-27.94L280.9,180s-.22-7.26-10.12-12.76c-8.61-4.78-89.25-50.66-110.14-62.54a9.12,9.12,0,0,0-9.63.37c-11,7.43-37.59,25.59-39.51,28.73-2.42,4-7,29.46-7,29.46l-2.19,17.07,15.4-10,117.7,65.34Z" fill="#68e1fd"/><polygon points="117.67 170.35 104.46 163.29 101.03 181.16 117.67 170.35" fill="#60433d"/><path d="M112,127.38l42.38-24.52a3.82,3.82,0,0,1,3.81,0l121,69.32a2.62,2.62,0,0,1,0,4.52l-41.44,24.89a4.58,4.58,0,0,1-4.64,0L112,131.92A2.62,2.62,0,0,1,112,127.38Z" fill="#fff" opacity="0.59"/><path d="M324.94,142.35l4.24,57.2s7.26,5.15,14.53,0l3.18-57.2Z" fill="#68e1fd"/><path d="M338,182.69a82.85,82.85,0,0,1-8.89,16.42l0,.44s7.26,5.15,14.53,0L346.29,153A131.81,131.81,0,0,1,338,182.69Z" fill="#fff" opacity="0.59"/><ellipse cx="335.91" cy="141.53" rx="10.97" ry="6.71" fill="#524235"/><path d="M335.91,141.53c1.61,2.36-5.76-39.81-11-45.18C324.94,96.35,319,116.65,335.91,141.53Z" fill="#afb14e"/><path d="M335.91,141.53s-4.8-44.88,11-59.19C346.88,82.34,350,117.84,335.91,141.53Z" fill="#bdc361"/><polygon points="225.22 170.08 247.16 157.13 230.01 147.22 207.45 160.47 225.22 170.08" fill="#fff"/><path d="M169.18,130.9l-29.07,16.19c4.86,3.07,24.4,13.58,29.09,16.89l30-19.22-4.95-12Z" opacity="0.32" fill="url(#linear-gradient-4)"/><polyline points="193.92 147.91 215.08 135.58 187.5 119.73 165.88 130.86" fill="#b3b3b3"/><path d="M188.44,123.58s5.55,24.63,5.48,24.33-27.41-15-27.59-15.52-7.23-25.51-7.23-25.51Z" fill="#fff"/><polygon points="184.81 122.32 187.63 120.62 194.63 126.45 188.97 129.56 184.81 122.32" fill="#ffe0ce"/><path d="M184.81,120.38s7.78,2.74,7.13,10c0,0,12.14-5.06,14.83-8.27s8.42-10.19,8.42-10.19V88.26s-14.68,22.8-17.86,25.55C194.78,116,184.81,120.38,184.81,120.38Z" fill="#444f4b"/><polygon points="214.41 112.81 213.65 101.19 210.14 118 214.41 112.81" fill="#27302d"/><path d="M214.82,132.61a3.89,3.89,0,0,0-1.34.4c-1.27.62-2.68,1-3.94,1.7a13,13,0,0,0-4.94,5.18c-.26.56-1.34,2.59-.78,3.17s1.83,0,1.83,0-.07,1.17.34,1.44,1.63-.68,1.63-.68.56,1.42,1.33,1.09,2.14-2.38,2.14-2.38-.15,1.56.53,1.56,3.57-4,3.57-4l6.11-3.19s-1.8-2-2-2.12a9.25,9.25,0,0,0-2.86-1.94A3.56,3.56,0,0,0,214.82,132.61Z" fill="#ffe0ce"/><path d="M213.77,137.77a13.9,13.9,0,0,0-3,5.2c-.08.24.3.34.37.1a13.42,13.42,0,0,1,2.94-5C214.22,137.86,213.94,137.58,213.77,137.77Z" fill="#5c2d1d"/><path d="M212,136.57a15,15,0,0,0-4.5,7.5.19.19,0,0,0,.37.1,14.65,14.65,0,0,1,4.4-7.33C212.44,136.68,212.17,136.4,212,136.57Z" fill="#5c2d1d"/><path d="M210.17,136.16a15.75,15.75,0,0,0-4.7,7c-.08.24.3.34.37.1a15.37,15.37,0,0,1,4.6-6.82C210.63,136.27,210.35,136,210.17,136.16Z" fill="#5c2d1d"/><polyline points="182.82 121.19 187.71 123.97 189.27 130.9 185.43 127.08" fill="#fff"/><path d="M220.9,85.95c-.31,0,2.13,28.35,2.2,27.76s9.46-25.89,9.46-25.89S223.81,85.85,220.9,85.95Z" fill="#e8e5d6"/><polygon points="223.1 113.71 232.56 100.83 231.59 97.06 234.85 95.61 235.91 88.75 232.56 87.82 223.1 113.71" fill="#27302d"/><path d="M220.9,85.95a8.32,8.32,0,0,0-3.61.83l-.37,5.09,2.58,1.82-2.2,2.68,5.81,17.33Z" fill="#27302d"/><path d="M222.17,86l-1.28-.06,2.2,6.64,2.42-2.09,1.78,3.26,5.26-5.94S223.45,86.08,222.17,86Z" fill="#fffffd"/><polygon points="223.1 92.59 224.8 94.34 222.3 104.51 223.1 113.71 226.33 104.7 225.37 94.39 227.31 93.76 225.52 90.5 223.1 92.59" fill="#895851"/><path d="M231.53,82l-1.46,6.27a7.16,7.16,0,0,1-3.42,1.94,2.4,2.4,0,0,1-3-2.07l-.6-5.37" fill="#f4cab5"/><path d="M237,70.91c-1.32-3.25-4.21-4-7.24-3.54a6.59,6.59,0,0,0-2.22-1.15,7.13,7.13,0,0,0-7.29,2,4.84,4.84,0,0,0-2.42.2c-2.31.85-2.69,3.25-2.26,5.38,0,.09,0,.17.07.25.07,3.75,3.63,5.48,3.63,5.48l11.45,6.38A8.53,8.53,0,0,0,234,83.12a4.52,4.52,0,0,0,.55-1.52,1.78,1.78,0,0,0,.24-.23C237.2,78.59,238.47,74.47,237,70.91Z" fill="#895851"/><path d="M219.13,76.53c.24,1.26,1.8,13.24,7.2,12.49s6.1-8.64,6.1-8.64-4.79-1.54-5.1-3.37-.07-2.63-2.43-3.23S218.73,74.43,219.13,76.53Z" fill="#ffe0ce"/><ellipse cx="176" cy="129.19" rx="1.82" ry="4.1" transform="matrix(0.87, -0.5, 0.5, 0.87, -41.02, 105.31)" fill="#b3b3b3"/><polygon points="82.31 106.88 79.18 105.29 82.69 101.87 82.31 106.88" fill="#60433d"/><polygon points="125.35 38.36 122.22 36.77 120.99 40.88 125.35 38.36" fill="#60433d"/><polygon points="122.22 36.77 79.18 61.62 79.18 105.29 122.22 79.45 122.22 36.77" fill="#60433d"/><polygon points="125.35 38.36 82.31 63.21 82.31 106.88 125.35 81.04 125.35 38.36" fill="#68e1fd"/><polygon points="120.52 46.05 87.14 65.32 87.14 99.19 120.52 79.15 120.52 46.05" fill="#fff"/><polygon points="113.61 59.34 113.68 60.32 113.68 75.09 96.25 84.75 96.25 69.36 113.61 59.34" fill="#68e1fd"/><polygon points="227.43 177.8 249.36 164.85 232.21 154.94 209.66 168.19 227.43 177.8" fill="#e8e5d6"/><path d="M259.51,173.87a9.06,9.06,0,0,1,3.07.93,4.59,4.59,0,0,1,1.94,1.65,2.06,2.06,0,0,1,.2,1.86,3.62,3.62,0,0,1-1.54,1.7,7.93,7.93,0,0,1-2.8,1.06,10.34,10.34,0,0,1-3.26.08,9.31,9.31,0,0,1-3.07-.93,4.66,4.66,0,0,1-1.94-1.65,2.08,2.08,0,0,1-.19-1.86,3.67,3.67,0,0,1,1.56-1.7,7.83,7.83,0,0,1,2.78-1.06A10.44,10.44,0,0,1,259.51,173.87Zm2.65,3.09a3.54,3.54,0,0,0-1.32-1,6.48,6.48,0,0,0-2-.64,6,6,0,0,0-2,0,4.59,4.59,0,0,0-1.69.64,2.14,2.14,0,0,0-1,1,1.22,1.22,0,0,0,.2,1.12,3.54,3.54,0,0,0,1.32,1,6.49,6.49,0,0,0,2,.64,6,6,0,0,0,2,0,4.77,4.77,0,0,0,1.7-.65,2.2,2.2,0,0,0,.94-1,1.22,1.22,0,0,0-.2-1.12" fill="#60433d"/><polygon points="248.36 178.43 249.86 179.2 246.47 181.35 248.92 182.62 251.95 180.69 253.4 181.44 250.37 183.37 252.93 184.68 256.31 182.53 257.82 183.31 252.73 186.54 243.27 181.66 248.36 178.43" fill="#60433d"/><path d="M237.86,185a8.1,8.1,0,0,1,3.55-1.22,9.74,9.74,0,0,1,3.87.4l-1.79,1.13a6,6,0,0,0-2.08-.07,4.64,4.64,0,0,0-1.85.66,1.86,1.86,0,0,0-.85,1A1.2,1.2,0,0,0,239,188a3.72,3.72,0,0,0,1.34,1,6.56,6.56,0,0,0,1.92.64,5.83,5.83,0,0,0,1.92,0,4.36,4.36,0,0,0,1.6-.59,2,2,0,0,0,1-1.12,1.29,1.29,0,0,0-.34-1.17l1.79-1.13a2.47,2.47,0,0,1,1.1,2.16A3.28,3.28,0,0,1,247.5,190a7.65,7.65,0,0,1-2.76,1.06,9.71,9.71,0,0,1-3.16,0,9.6,9.6,0,0,1-3-1,5.1,5.1,0,0,1-2-1.62,1.92,1.92,0,0,1-.27-1.8A3.58,3.58,0,0,1,237.86,185Z" fill="#60433d"/><path d="M137.74,248.26l16.81-9.5a20.74,20.74,0,0,0-1.85-1.82c-6.23,3-12.29,6.29-18.45,9.39C135.4,247,136.57,247.62,137.74,248.26Z" fill="url(#linear-gradient-5)"/><path d="M119,207.84S110.19,230,111,231s1.41,1.31,2.63,0,10-20.7,10-20.7Z" fill="#b38e7e"/><path d="M147.85,215.41l3.82,22.11s.41,2.3,2,1.79,1.22-2.8,1.22-2.8l-1.51-23.12" fill="#b38e7e"/><path d="M151.68,167.27v14.84L125,191.79s-25.7-32.39-11.27-38.91S151.68,167.27,151.68,167.27Z" fill="#e0cfc7"/><path d="M168.23,192.8v9.08a9.35,9.35,0,0,1-4.65,8.16c-4.22,2.4-11.88,4.94-25.08,4.51-24.14-.8-17-21.74-17-21.74" fill="#c8af9b"/><ellipse cx="144.89" cy="192.8" rx="23.34" ry="13.36" fill="#e8e5d6"/><path d="M139.91,212.95s3-15.16-4.39-19.75-32.31-29.32-22.34-38.3,38.5,12.37,38.5,12.37-22.74-20.94-36.9-18.35-3.79,51.26.4,58.25c3.64,6.06,12.92,9,19.38,10.06,10.67,1.81,41.35-3,33.88-20.24C168.43,197,168.23,213.9,139.91,212.95Z" fill="#ded6cc"/></svg>