<?xml version="1.0" standalone="no"?>
<!DOCTYPE svg PUBLIC "-//W3C//DTD SVG 20010904//EN"
 "http://www.w3.org/TR/2001/REC-SVG-20010904/DTD/svg10.dtd">
<svg version="1.0" xmlns="http://www.w3.org/2000/svg"
 width="205.000000pt" height="246.000000pt" viewBox="0 0 205.000000 246.000000"
 preserveAspectRatio="xMidYMid meet">
<metadata>
Created by potrace 1.16, written by Peter Selinger 2001-2019
</metadata>
<g transform="translate(0.000000,246.000000) scale(0.100000,-0.100000)"
fill="#000000" stroke="none">
<path d="M749 2351 c-327 -71 -549 -347 -549 -685 0 -291 172 -538 450 -645
44 -18 85 -29 90 -26 6 4 10 27 10 53 l0 47 -52 19 c-168 59 -313 207 -369
378 -34 103 -34 253 0 356 48 148 166 284 306 352 97 48 175 63 290 57 123 -6
200 -31 301 -99 166 -111 258 -285 257 -488 0 -106 -10 -154 -55 -253 -17 -37
-29 -68 -27 -70 2 -1 20 -17 40 -35 l36 -33 36 68 c100 192 105 440 10 626
-74 148 -175 248 -330 326 -124 62 -301 83 -444 52z"/>
<path d="M778 2027 c-103 -39 -182 -110 -227 -206 -22 -48 -26 -69 -26 -151 0
-107 18 -160 80 -236 32 -39 118 -104 137 -104 4 0 8 25 8 55 0 51 -3 58 -34
86 -85 74 -113 217 -61 318 44 87 145 151 240 151 99 0 205 -70 244 -161 21
-49 32 -162 16 -177 -6 -6 65 -82 77 -82 17 0 40 115 36 179 -9 125 -99 256
-213 311 -62 29 -217 39 -277 17z"/>
<path d="M860 1015 c0 -377 3 -685 8 -685 4 0 72 65 152 145 80 80 148 145
153 145 9 0 62 -112 138 -294 55 -128 106 -236 114 -236 28 0 215 90 215 103
0 7 -48 125 -106 264 -60 141 -104 259 -101 267 6 14 35 16 212 16 113 0 205
4 205 8 0 18 -963 952 -981 952 -5 0 -9 -291 -9 -685z"/>
</g>
</svg>
